<svg xmlns="http://www.w3.org/2000/svg" viewBox="0 0 256 256" width="256" height="256">
<defs>
  <radialGradient id="bg" cx="50%" cy="12%" r="115%">
    <stop offset="0%" stop-color="#16233a"/>
    <stop offset="55%" stop-color="#0d1626"/>
    <stop offset="100%" stop-color="#070c16"/>
  </radialGradient>
  <clipPath id="plate"><rect x="0" y="0" width="256" height="256" rx="58"/></clipPath>
  
  <radialGradient id="glowA" cx="50%" cy="50%" r="50%">
    <stop offset="0%" stop-color="#2fa9d8" stop-opacity="0.55"/>
    <stop offset="100%" stop-color="#2fa9d8" stop-opacity="0"/>
  </radialGradient>
</defs>
<g clip-path="url(#plate)">
  <rect width="256" height="256" fill="url(#bg)"/>
  
<g fill="#cfe6ff">
  <circle cx="42" cy="44" r="1.6" opacity="0.5"/>
  <circle cx="200" cy="34" r="1.3" opacity="0.42"/>
  <circle cx="226" cy="86" r="1.8" opacity="0.34"/>
  <circle cx="78" cy="26" r="1.2" opacity="0.36"/>
  <circle cx="150" cy="40" r="1.0" opacity="0.30"/>
  <circle cx="30" cy="120" r="1.2" opacity="0.26"/>
  <circle cx="238" cy="150" r="1.1" opacity="0.24"/>
  <circle cx="118" cy="22" r="1.5" opacity="0.4"/>
</g>
  <ellipse cx="128" cy="182" rx="104" ry="30" fill="url(#glowA)"/>
<polygon points="108.0,126.0 212.0,178.0 148.0,210.0 44.0,158.0" fill="#12324a" stroke="#3fc2f0" stroke-width="2.5" stroke-opacity="0.85" stroke-linejoin="round"/>
<g stroke="#3fc2f0" stroke-width="1.4" opacity="0.35"><line x1="134.0" y1="139.0" x2="70.0" y2="171.0"/><line x1="160.0" y1="152.0" x2="96.0" y2="184.0"/><line x1="186.0" y1="165.0" x2="122.0" y2="197.0"/><line x1="76.0" y1="142.0" x2="180.0" y2="194.0"/></g>
<polygon points="108.0,92.0 148.0,112.0 108.0,132.0 68.0,112.0" fill="#5d7186" />
<polygon points="148.0,158.0 108.0,178.0 108.0,132.0 148.0,112.0" fill="#33404e" />
<polygon points="68.0,158.0 108.0,178.0 108.0,132.0 68.0,112.0" fill="#46586a" />
<polygon points="108.0,92.0 148.0,112.0 108.0,132.0 68.0,112.0" fill="none" stroke="#0c1420" stroke-width="1.6" stroke-linejoin="round" opacity="0.55"/>
<polygon points="148.0,158.0 108.0,178.0 108.0,132.0 148.0,112.0" fill="none" stroke="#0c1420" stroke-width="1.6" stroke-linejoin="round" opacity="0.55"/>
<polygon points="68.0,158.0 108.0,178.0 108.0,132.0 68.0,112.0" fill="none" stroke="#0c1420" stroke-width="1.6" stroke-linejoin="round" opacity="0.55"/>
<polygon points="148.0,112.0 188.0,132.0 148.0,152.0 108.0,132.0" fill="#59d8ff" />
<polygon points="188.0,178.0 148.0,198.0 148.0,152.0 188.0,132.0" fill="#1b81ab" />
<polygon points="108.0,178.0 148.0,198.0 148.0,152.0 108.0,132.0" fill="#2fa9d8" />
<polygon points="148.0,112.0 188.0,132.0 148.0,152.0 108.0,132.0" fill="none" stroke="#0c1420" stroke-width="1.6" stroke-linejoin="round" opacity="0.55"/>
<polygon points="188.0,178.0 148.0,198.0 148.0,152.0 188.0,132.0" fill="none" stroke="#0c1420" stroke-width="1.6" stroke-linejoin="round" opacity="0.55"/>
<polygon points="108.0,178.0 148.0,198.0 148.0,152.0 108.0,132.0" fill="none" stroke="#0c1420" stroke-width="1.6" stroke-linejoin="round" opacity="0.55"/>
<polygon points="108.0,46.0 148.0,66.0 108.0,86.0 68.0,66.0" fill="#ffa04f" />
<polygon points="148.0,112.0 108.0,132.0 108.0,86.0 148.0,66.0" fill="#c25f16" />
<polygon points="68.0,112.0 108.0,132.0 108.0,86.0 68.0,66.0" fill="#e57c2a" />
<polygon points="108.0,46.0 148.0,66.0 108.0,86.0 68.0,66.0" fill="none" stroke="#0c1420" stroke-width="1.6" stroke-linejoin="round" opacity="0.55"/>
<polygon points="148.0,112.0 108.0,132.0 108.0,86.0 148.0,66.0" fill="none" stroke="#0c1420" stroke-width="1.6" stroke-linejoin="round" opacity="0.55"/>
<polygon points="68.0,112.0 108.0,132.0 108.0,86.0 68.0,66.0" fill="none" stroke="#0c1420" stroke-width="1.6" stroke-linejoin="round" opacity="0.55"/>
<polygon points="148.0,89.0 188.0,109.0 148.0,129.0 108.0,109.0" fill="#5d7186" />
<polygon points="188.0,132.0 148.0,152.0 148.0,129.0 188.0,109.0" fill="#33404e" />
<polygon points="108.0,132.0 148.0,152.0 148.0,129.0 108.0,109.0" fill="#46586a" />
<polygon points="148.0,89.0 188.0,109.0 148.0,129.0 108.0,109.0" fill="none" stroke="#0c1420" stroke-width="1.6" stroke-linejoin="round" opacity="0.55"/>
<polygon points="188.0,132.0 148.0,152.0 148.0,129.0 188.0,109.0" fill="none" stroke="#0c1420" stroke-width="1.6" stroke-linejoin="round" opacity="0.55"/>
<polygon points="108.0,132.0 148.0,152.0 148.0,129.0 108.0,109.0" fill="none" stroke="#0c1420" stroke-width="1.6" stroke-linejoin="round" opacity="0.55"/>
</g>
<rect x="1" y="1" width="254" height="254" rx="57" fill="none" stroke="#8fb8e0" stroke-opacity="0.14" stroke-width="2"/>
</svg>
