<svg xmlns="http://www.w3.org/2000/svg" viewBox="0 0 256 256" width="256" height="256">
<defs>
  <radialGradient id="bg" cx="50%" cy="12%" r="115%">
    <stop offset="0%" stop-color="#16233a"/>
    <stop offset="55%" stop-color="#0d1626"/>
    <stop offset="100%" stop-color="#070c16"/>
  </radialGradient>
  <clipPath id="plate"><rect x="0" y="0" width="256" height="256" rx="58"/></clipPath>
  
  <radialGradient id="glowB" cx="50%" cy="50%" r="50%">
    <stop offset="0%" stop-color="#2fa9d8" stop-opacity="0.5"/>
    <stop offset="100%" stop-color="#2fa9d8" stop-opacity="0"/>
  </radialGradient>
  <filter id="softB" x="-40%" y="-40%" width="180%" height="180%">
    <feDropShadow dx="0" dy="0" stdDeviation="7" flood-color="#59d8ff" flood-opacity="0.6"/>
  </filter>
</defs>
<g clip-path="url(#plate)">
  <rect width="256" height="256" fill="url(#bg)"/>
  
<g fill="#cfe6ff">
  <circle cx="42" cy="44" r="1.6" opacity="0.5"/>
  <circle cx="200" cy="34" r="1.3" opacity="0.42"/>
  <circle cx="226" cy="86" r="1.8" opacity="0.34"/>
  <circle cx="78" cy="26" r="1.2" opacity="0.36"/>
  <circle cx="150" cy="40" r="1.0" opacity="0.30"/>
  <circle cx="30" cy="120" r="1.2" opacity="0.26"/>
  <circle cx="238" cy="150" r="1.1" opacity="0.24"/>
  <circle cx="118" cy="22" r="1.5" opacity="0.4"/>
</g>
  <ellipse cx="128" cy="179" rx="102" ry="30" fill="url(#glowB)"/>
<polygon points="128.0,138.0 194.0,171.0 128.0,204.0 62.0,171.0" fill="#123048" stroke="#3fc2f0" stroke-width="2" stroke-opacity="0.7" stroke-linejoin="round"/>
<polygon points="128.0,101.0 161.0,117.5 95.0,150.5 62.0,134.0" fill="#5d7186" />
<polygon points="161.0,154.5 95.0,187.5 95.0,150.5 161.0,117.5" fill="#33404e" />
<polygon points="62.0,171.0 95.0,187.5 95.0,150.5 62.0,134.0" fill="#46586a" />
<polygon points="128.0,101.0 161.0,117.5 95.0,150.5 62.0,134.0" fill="none" stroke="#0c1420" stroke-width="1.6" stroke-linejoin="round" opacity="0.55"/>
<polygon points="161.0,154.5 95.0,187.5 95.0,150.5 161.0,117.5" fill="none" stroke="#0c1420" stroke-width="1.6" stroke-linejoin="round" opacity="0.55"/>
<polygon points="62.0,171.0 95.0,187.5 95.0,150.5 62.0,134.0" fill="none" stroke="#0c1420" stroke-width="1.6" stroke-linejoin="round" opacity="0.55"/>
<polygon points="161.0,117.5 194.0,134.0 161.0,150.5 128.0,134.0" fill="#ffa04f" />
<polygon points="194.0,171.0 161.0,187.5 161.0,150.5 194.0,134.0" fill="#c25f16" />
<polygon points="128.0,171.0 161.0,187.5 161.0,150.5 128.0,134.0" fill="#e57c2a" />
<polygon points="161.0,117.5 194.0,134.0 161.0,150.5 128.0,134.0" fill="none" stroke="#0c1420" stroke-width="1.6" stroke-linejoin="round" opacity="0.55"/>
<polygon points="194.0,171.0 161.0,187.5 161.0,150.5 194.0,134.0" fill="none" stroke="#0c1420" stroke-width="1.6" stroke-linejoin="round" opacity="0.55"/>
<polygon points="128.0,171.0 161.0,187.5 161.0,150.5 128.0,134.0" fill="none" stroke="#0c1420" stroke-width="1.6" stroke-linejoin="round" opacity="0.55"/>
<polygon points="128.0,170.3 161.0,186.8 128.0,203.3 95.0,186.8" fill="#59d8ff" opacity="0.16"/>
<polygon points="128.0,170.3 161.0,186.8 128.0,203.3 95.0,186.8" fill="none" stroke="#59d8ff" stroke-width="2.4" stroke-dasharray="7 5" stroke-linejoin="round" opacity="0.95"/>
<g stroke="#59d8ff" stroke-width="2.2" opacity="0.55" stroke-linecap="round"><line x1="128.0" y1="138.0" x2="128.0" y2="64.0"/><line x1="194.0" y1="171.0" x2="194.0" y2="97.0"/><line x1="62.0" y1="171.0" x2="62.0" y2="97.0"/><line x1="128.0" y1="204.0" x2="128.0" y2="130.0"/><line x1="128.0" y1="64.0" x2="194.0" y2="97.0"/><line x1="194.0" y1="97.0" x2="128.0" y2="130.0"/><line x1="128.0" y1="130.0" x2="62.0" y2="97.0"/><line x1="62.0" y1="97.0" x2="128.0" y2="64.0"/><line x1="128.0" y1="138.0" x2="194.0" y2="171.0"/><line x1="194.0" y1="171.0" x2="128.0" y2="204.0"/><line x1="128.0" y1="204.0" x2="62.0" y2="171.0"/><line x1="62.0" y1="171.0" x2="128.0" y2="138.0"/></g>
<g filter="url(#softB)"><polygon points="128.0,36.0 161.0,52.5 128.0,69.0 95.0,52.5" fill="#59d8ff" />
<polygon points="161.0,89.5 128.0,106.0 128.0,69.0 161.0,52.5" fill="#1b81ab" />
<polygon points="95.0,89.5 128.0,106.0 128.0,69.0 95.0,52.5" fill="#2fa9d8" />
<polygon points="128.0,36.0 161.0,52.5 128.0,69.0 95.0,52.5" fill="none" stroke="#0c1420" stroke-width="1.6" stroke-linejoin="round" opacity="0.55"/>
<polygon points="161.0,89.5 128.0,106.0 128.0,69.0 161.0,52.5" fill="none" stroke="#0c1420" stroke-width="1.6" stroke-linejoin="round" opacity="0.55"/>
<polygon points="95.0,89.5 128.0,106.0 128.0,69.0 95.0,52.5" fill="none" stroke="#0c1420" stroke-width="1.6" stroke-linejoin="round" opacity="0.55"/></g>
<line x1="128.0" y1="95.5" x2="128.0" y2="181.9" stroke="#59d8ff" stroke-width="3" stroke-dasharray="3 8" stroke-linecap="round" opacity="0.8"/>
</g>
<rect x="1" y="1" width="254" height="254" rx="57" fill="none" stroke="#8fb8e0" stroke-opacity="0.14" stroke-width="2"/>
</svg>
